<?xml version="1.0" standalone="no"?>
<!DOCTYPE svg PUBLIC "-//W3C//DTD SVG 20010904//EN"
 "http://www.w3.org/TR/2001/REC-SVG-20010904/DTD/svg10.dtd">
<svg version="1.0" xmlns="http://www.w3.org/2000/svg"
 width="602.000000pt" height="619.000000pt" viewBox="0 0 602.000000 619.000000"
 preserveAspectRatio="xMidYMid meet">

<g transform="translate(0.000000,619.000000) scale(0.100000,-0.100000)"
fill="#000000" stroke="none">
<path d="M2790 5575 c-932 -115 -1732 -734 -2080 -1608 -288 -726 -224 -1563
170 -2231 485 -822 1369 -1310 2305 -1272 402 16 745 105 1093 286 402 209
762 541 997 921 175 283 308 639 361 967 21 135 30 498 15 648 -30 301 -124
622 -263 897 -42 84 -152 267 -197 327 -212 285 -421 485 -695 666 -304 199
-648 331 -1016 389 -147 23 -538 29 -690 10z m720 -54 c422 -77 770 -227 1110
-479 189 -140 454 -420 574 -604 l17 -27 -50 20 c-74 28 -87 23 -16 -6 94 -39
98 -51 64 -196 -16 -70 -30 -101 -62 -145 -39 -52 -44 -55 -75 -50 -18 2 -86
30 -152 62 -130 62 -126 57 -136 161 -5 48 -2 66 18 103 33 65 73 84 188 91
l95 6 -85 1 c-93 2 -147 -15 -187 -59 -48 -52 -54 -110 -24 -234 19 -77 59
-184 47 -123 -3 14 -9 33 -12 42 -4 9 19 -8 49 -38 31 -30 86 -69 122 -87 l65
-32 2 -61 2 -61 3 57 4 57 64 -6 c44 -4 65 -2 65 5 0 7 -21 10 -54 9 -30 -1
-58 1 -62 5 -4 5 -2 20 5 35 l13 28 13 -33 c8 -17 19 -32 26 -32 8 0 6 7 -4
18 -27 29 -21 79 13 122 40 51 59 98 79 200 l17 84 38 -62 c20 -34 66 -122
101 -195 324 -678 318 -1485 -15 -2171 -299 -617 -825 -1079 -1476 -1296 -640
-213 -1331 -163 -1929 140 -256 129 -430 254 -638 459 -199 195 -351 401 -476
643 -253 488 -337 1051 -241 1602 141 805 696 1517 1445 1854 248 112 450 167
790 216 17 2 147 3 290 1 212 -2 281 -6 375 -24z m1410 -1438 c47 -22 105 -47
130 -54 25 -7 47 -14 48 -15 2 -1 -4 -18 -15 -36 -10 -18 -19 -35 -20 -36 -6
-12 -156 81 -195 121 -42 42 -63 76 -40 65 4 -2 45 -22 92 -45z"/>
<path d="M4848 3980 c12 -60 7 -173 -11 -225 -23 -66 -42 -89 -75 -91 -15 -1
-38 -2 -51 -3 -18 -1 -22 -4 -14 -12 19 -19 90 -1 113 28 51 65 75 228 44 303
l-14 35 8 -35z"/>
<path d="M3362 3950 c-40 -10 -83 -27 -95 -36 -19 -14 -19 -15 -2 -9 125 49
227 61 345 43 37 -6 40 -5 20 3 -49 21 -189 21 -268 -1z"/>
<path d="M3660 3937 c8 -8 90 -48 90 -43 0 7 -44 33 -70 41 -14 4 -23 5 -20 2z"/>
<path d="M1030 2881 c0 -683 3 -1042 10 -1046 7 -4 10 339 10 1021 0 603 4
1024 9 1019 5 -6 45 -73 90 -149 l81 -140 0 -978 c0 -645 3 -978 10 -978 7 0
10 326 10 957 0 576 4 953 9 948 5 -6 43 -68 85 -140 l76 -129 0 -918 c0 -911
0 -918 20 -918 20 0 20 8 22 880 l3 881 95 -161 c52 -88 98 -160 102 -160 4 0
13 9 20 20 7 11 15 20 18 20 4 0 37 -54 76 -120 69 -120 92 -140 113 -103 5
10 12 16 14 13 3 -3 36 -57 73 -121 61 -102 72 -115 91 -110 16 4 66 70 158
205 l135 199 0 -521 c0 -341 3 -522 10 -522 7 0 10 186 10 537 l0 537 41 63
41 63 49 0 49 0 0 -700 c0 -460 3 -700 10 -700 7 0 10 205 10 595 l0 595 85 0
85 0 0 -695 c0 -688 0 -695 20 -695 20 0 20 7 20 590 l0 590 91 0 90 0 -3
-520 c-2 -286 0 -520 5 -520 4 0 7 234 7 520 l0 520 90 0 90 0 0 -620 c0 -544
2 -620 15 -620 13 0 15 76 15 620 l0 620 86 0 85 0 -2 -717 c-1 -619 1 -718
13 -721 13 -2 16 64 21 464 4 257 7 581 7 721 l0 253 250 0 c243 0 250 1 250
20 0 20 -7 20 -355 20 l-355 0 0 85 0 85 255 0 c220 0 255 2 255 15 0 13 -47
15 -360 15 l-360 0 0 90 0 90 253 0 254 0 79 -63 c82 -66 174 -131 174 -124 0
2 -49 41 -110 86 -60 45 -164 134 -231 199 -194 186 -286 326 -314 475 -7 40
-13 62 -14 51 -2 -41 19 -127 46 -188 40 -89 131 -207 250 -323 l105 -103
-341 0 -341 0 0 234 c0 230 0 235 -21 241 -26 8 -20 15 -110 -120 l-74 -110
-3 218 c-2 183 -5 217 -17 217 -8 0 -53 -57 -100 -127 l-85 -128 0 228 c0 196
-2 228 -15 225 -8 -2 -143 -196 -301 -433 -158 -236 -292 -436 -298 -442 -9
-10 -43 40 -149 220 -75 127 -141 237 -145 244 -4 7 -17 10 -30 6 -17 -4 -22
-13 -22 -37 0 -26 -12 -10 -80 104 -43 74 -85 135 -92 135 -8 0 -15 -17 -18
-45 l-5 -45 -88 148 c-48 81 -92 147 -97 147 -7 0 -10 -375 -10 -1039z m1108
223 c-167 -249 -226 -329 -234 -321 -22 23 -135 222 -132 233 2 7 134 208 293
447 l290 435 3 -231 2 -231 -222 -332z m355 39 c-53 -79 -73 -103 -90 -103
l-23 0 0 190 0 190 88 131 87 132 3 -218 2 -218 -67 -104z m-1154 388 c71
-122 81 -144 81 -187 l0 -49 -66 110 c-92 153 -104 179 -104 225 0 22 2 40 4
40 2 0 40 -62 85 -139z m391 -541 c0 -10 -19 -34 -23 -30 -2 3 -59 98 -126
211 -97 167 -121 214 -121 245 0 35 12 18 135 -191 74 -126 135 -232 135 -235z
m1020 255 l0 -205 -85 0 -85 0 0 82 0 82 81 123 c45 68 83 123 85 123 2 0 4
-92 4 -205z m-536 -518 c-80 -121 -149 -215 -154 -210 -12 14 -130 214 -130
221 0 4 96 150 213 326 l212 319 3 -219 2 -219 -146 -218z m-533 186 c-6 -13
-14 -23 -18 -23 -5 1 -52 76 -105 168 -88 151 -98 172 -98 217 l0 50 116 -195
c100 -169 114 -197 105 -217z m879 187 l0 -60 -45 0 -46 0 41 60 c22 33 43 60
45 60 3 0 5 -27 5 -60z m-150 -77 c0 -5 -7 -17 -15 -27 -14 -19 -15 -19 -15 7
0 17 5 27 15 27 8 0 15 -3 15 -7z m340 -83 l0 -90 -85 0 -85 0 0 90 0 90 85 0
85 0 0 -90z m220 0 l0 -90 -90 0 -90 0 0 90 0 90 90 0 90 0 0 -90z m-1157 -84
c66 -112 76 -139 58 -151 -15 -8 -153 228 -145 248 3 10 9 17 13 17 4 0 37
-51 74 -114z m1157 -121 l0 -85 -90 0 -90 0 0 85 0 85 90 0 90 0 0 -85z m190
0 l0 -85 -90 0 -90 0 0 85 0 85 90 0 90 0 0 -85z"/>
<path d="M3210 3883 c-69 -46 -130 -133 -130 -185 1 -14 8 -2 18 28 19 54 55
103 100 137 52 39 60 53 12 20z"/>
<path d="M3769 3877 c14 -18 51 -42 51 -33 0 3 -15 15 -32 27 -24 17 -29 18
-19 6z"/>
<path d="M4408 3844 c-12 -18 9 -122 34 -167 15 -27 39 -50 67 -66 l44 -24
-69 -18 c-76 -19 -287 -99 -281 -106 3 -2 38 10 79 26 132 52 231 81 280 81
41 0 50 -4 59 -24 9 -18 7 -31 -9 -62 -37 -73 -35 -72 -252 -74 -107 -1 -203
-2 -212 -1 -28 2 -21 17 12 31 17 7 29 15 26 17 -9 9 -76 -27 -76 -41 0 -34
42 -125 77 -166 57 -66 170 -136 253 -154 89 -20 126 -20 175 3 52 23 89 90
115 208 34 153 22 213 -46 232 -20 6 -44 16 -53 24 -9 7 -38 22 -64 31 -62 23
-105 60 -128 111 -28 60 -24 67 24 40 43 -25 100 -32 126 -16 12 8 10 12 -12
22 -37 17 -34 26 12 39 29 7 46 7 65 -1 34 -16 33 -40 -4 -67 -63 -47 -15 -78
65 -43 57 25 72 26 54 4 -12 -14 -12 -16 1 -11 8 2 16 12 18 21 5 23 -22 21
-77 -3 -41 -19 -81 -19 -81 -1 0 4 14 17 30 29 36 27 38 56 6 77 -27 18 -82
13 -113 -11 -17 -13 -17 -15 7 -34 l25 -20 -38 0 c-67 0 -123 41 -129 95 -2
17 -6 25 -10 19z m310 -341 c30 -32 27 -107 -9 -245 -13 -49 -26 -42 -83 42
-40 61 -51 71 -93 84 l-48 15 36 0 c20 1 46 9 57 19 22 19 62 89 62 110 0 20
52 4 78 -25z m-498 -128 c45 -3 49 -3 20 4 -55 13 209 13 269 0 53 -11 82 -37
125 -109 l18 -32 -48 27 c-37 20 -43 22 -24 6 14 -11 44 -30 66 -41 49 -24 49
-42 0 -95 -23 -24 -44 -35 -78 -40 -100 -15 -250 43 -347 135 -67 64 -119 173
-73 155 9 -4 42 -8 72 -10z"/>
<path d="M4365 3350 c44 -10 104 -27 133 -39 28 -11 52 -19 52 -16 0 16 -193
75 -240 74 -14 0 11 -9 55 -19z"/>
<path d="M3835 3810 c10 -11 20 -20 22 -20 2 0 -1 9 -7 20 -6 11 -16 20 -22
20 -6 0 -3 -9 7 -20z"/>
<path d="M5074 3732 c8 -63 6 -72 -23 -148 -39 -101 -102 -206 -224 -377 -115
-161 -149 -215 -212 -335 -62 -118 -102 -164 -168 -197 -98 -47 -249 -41 -403
16 l-54 20 16 32 15 32 -24 -28 c-24 -28 -25 -29 -55 -13 -17 9 -35 16 -39 16
-4 -1 9 -10 30 -21 20 -11 37 -22 37 -25 0 -3 -28 -49 -63 -102 -213 -327
-236 -372 -218 -433 21 -71 111 -145 499 -413 134 -92 341 -237 459 -322 118
-85 217 -153 219 -151 2 2 -15 17 -39 33 -23 17 -130 94 -237 171 -107 77
-298 211 -425 298 -280 193 -335 233 -403 299 -92 89 -90 131 15 298 164 259
206 319 222 314 153 -51 190 -59 286 -60 172 -1 238 45 346 244 67 124 105
183 249 385 94 133 164 259 195 353 12 39 15 68 10 112 -4 33 -10 62 -14 64
-3 2 -2 -26 3 -62z"/>
<path d="M3878 3753 c35 -50 78 -151 111 -259 16 -55 30 -91 30 -80 1 28 -64
216 -98 283 -16 33 -37 66 -47 74 -14 10 -12 6 4 -18z"/>
<path d="M4021 3381 c-1 -8 6 -51 14 -95 8 -45 16 -94 18 -111 3 -16 3 2 0 40
-3 65 -29 198 -32 166z"/>
<path d="M4064 3030 c0 -58 1 -81 3 -52 2 28 2 76 0 105 -2 28 -3 5 -3 -53z"/>
<path d="M3780 2816 c0 -6 87 -56 97 -56 8 0 -83 60 -92 60 -3 0 -5 -2 -5 -4z"/>
</g>
</svg>
